<svg xmlns="http://www.w3.org/2000/svg" viewBox="0 0 24 24" fill="#181717"><path d="M12.026 2c-5.509 0-9.974 4.465-9.974 9.974 0 4.411 2.865 8.145 6.839 9.467.5.09.682-.217.682-.482 0-.237-.008-.868-.013-1.703-2.782.604-3.369-1.342-3.369-1.342-.454-1.154-1.108-1.461-1.108-1.461-.907-.62.069-.608.069-.608 1.003.07 1.53 1.03 1.53 1.03.892 1.527 2.341 1.087 2.91.832.091-.647.35-1.087.636-1.337-2.22-.253-4.555-1.11-4.555-4.942 0-1.09.39-1.982 1.029-2.681-.103-.253-.446-1.272.098-2.65 0 0 .84-.27 2.75 1.025a9.563 9.563 0 012.5-.336c.849.004 1.705.115 2.5.336 1.909-1.295 2.748-1.025 2.748-1.025.546 1.378.203 2.397.1 2.65.64.699 1.028 1.591 1.028 2.681 0 3.841-2.337 4.685-4.565 4.933.359.309.678.919.678 1.852 0 1.336-.012 2.417-.012 2.747 0 .267.18.577.688.479C19.14 20.117 22 16.386 22 11.974 22 6.465 17.535 2 12.026 2z"/></svg>
